<svg width="50" height="50" viewBox="0 0 50 50" fill="none" xmlns="http://www.w3.org/2000/svg">
<path d="M39.7611 9.98642C37.8413 8.05748 35.5547 6.52803 33.0348 5.48719C30.5149 4.44635 27.812 3.91495 25.0836 3.92394C13.6514 3.92394 4.33401 13.1947 4.33401 24.5697C4.33401 28.2155 5.29716 31.7572 7.09783 34.8822L4.1665 45.5905L15.159 42.7155C18.195 44.3613 21.6079 45.2363 25.0836 45.2363C36.5157 45.2363 45.8332 35.9655 45.8332 24.5906C45.8332 19.0697 43.6765 13.8822 39.7611 9.98642ZM25.0836 41.7363C21.9848 41.7363 18.9487 40.903 16.2896 39.3405L15.6615 38.9655L9.12881 40.6738L10.8667 34.3405L10.4479 33.6947C8.72586 30.9594 7.81166 27.7974 7.80972 24.5697C7.80972 15.1114 15.5568 7.4031 25.0626 7.4031C29.669 7.4031 34.0032 9.19476 37.2486 12.4447C38.8558 14.0361 40.1295 15.9292 40.9957 18.0142C41.8619 20.0991 42.3034 22.3345 42.2946 24.5906C42.3365 34.0489 34.5894 41.7363 25.0836 41.7363ZM34.5476 28.903C34.0241 28.653 31.4697 27.403 31.009 27.2155C30.5275 27.0489 30.1925 26.9655 29.8365 27.4655C29.4806 27.9864 28.4965 29.153 28.2034 29.4864C27.9102 29.8405 27.5961 29.8822 27.0727 29.6114C26.5492 29.3614 24.8742 28.7989 22.906 27.0489C21.3566 25.6739 20.3307 23.9864 20.0166 23.4656C19.7235 22.9447 19.9747 22.6739 20.2469 22.4031C20.4772 22.1739 20.7704 21.7989 21.0216 21.5072C21.2729 21.2156 21.3776 20.9864 21.5451 20.6531C21.7126 20.2989 21.6288 20.0072 21.5032 19.7572C21.3776 19.5072 20.3307 16.9656 19.9119 15.9239C19.4931 14.9239 19.0534 15.0489 18.7394 15.0281H17.7343C17.3784 15.0281 16.834 15.1531 16.3524 15.6739C15.8918 16.1947 14.5518 17.4447 14.5518 19.9864C14.5518 22.5281 16.4152 24.9864 16.6665 25.3197C16.9178 25.6739 20.3307 30.8822 25.5233 33.1114C26.7586 33.653 27.7218 33.9655 28.4755 34.1947C29.7109 34.5905 30.8415 34.528 31.7419 34.403C32.7469 34.2572 34.8198 33.153 35.2385 31.9447C35.6782 30.7364 35.6782 29.7155 35.5317 29.4864C35.3851 29.2572 35.071 29.153 34.5476 28.903Z" fill="#5B525B"/>
</svg>
