<svg width="17" height="17" viewBox="0 0 17 17" fill="none" xmlns="http://www.w3.org/2000/svg">
<path d="M3.54167 5.6665H13.4583V4.24984H3.54167V5.6665ZM3.54167 15.5832C3.15208 15.5832 2.81858 15.4445 2.54115 15.167C2.26372 14.8896 2.125 14.5561 2.125 14.1665V4.24984C2.125 3.86025 2.26372 3.52675 2.54115 3.24932C2.81858 2.97189 3.15208 2.83317 3.54167 2.83317H4.25V1.4165H5.66667V2.83317H11.3333V1.4165H12.75V2.83317H13.4583C13.8479 2.83317 14.1814 2.97189 14.4589 3.24932C14.7363 3.52675 14.875 3.86025 14.875 4.24984V8.26963C14.6507 8.16338 14.4205 8.07484 14.1844 8.004C13.9483 7.93317 13.7063 7.88005 13.4583 7.84463V7.08317H3.54167V14.1665H8.00417C8.08681 14.4262 8.1842 14.6741 8.29635 14.9103C8.40851 15.1464 8.54132 15.3707 8.69479 15.5832H3.54167ZM12.75 16.2915C11.7701 16.2915 10.9349 15.9462 10.2443 15.2556C9.55365 14.5649 9.20833 13.7297 9.20833 12.7498C9.20833 11.77 9.55365 10.9347 10.2443 10.2441C10.9349 9.55348 11.7701 9.20817 12.75 9.20817C13.7299 9.20817 14.5651 9.55348 15.2557 10.2441C15.9464 10.9347 16.2917 11.77 16.2917 12.7498C16.2917 13.7297 15.9464 14.5649 15.2557 15.2556C14.5651 15.9462 13.7299 16.2915 12.75 16.2915ZM13.9365 14.4321L14.4323 13.9363L13.1042 12.6082V10.6248H12.3958V12.8915L13.9365 14.4321Z" fill="#0F0E12"/>
</svg>
